<svg width="1126" height="294" viewBox="0 0 1126 294" fill="none" xmlns="http://www.w3.org/2000/svg">
<path d="M116.61 56.9101L57.2 91.2101C51.91 94.2601 48.66 99.9001 48.66 106.01V174.61C48.66 180.71 51.92 186.36 57.2 189.41L93.8 210.54C73.29 198.7 77.65 179.88 88.43 161.51C96.06 148.52 127.38 94.1801 145.06 63.4701L133.69 56.9101C128.4 53.8601 121.89 53.8601 116.6 56.9101H116.61Z" fill="url(#paint0_linear_47_9)"/>
<path d="M201.65 174.61V106.01C201.65 99.9101 198.39 94.2601 193.11 91.2101L133.7 56.9101C128.41 53.8601 121.9 53.8601 116.61 56.9101L80.01 78.0401C100.52 66.2001 114.64 79.3801 125.15 97.9101C132.58 111.01 163.98 165.3 181.73 195.98L193.1 189.42C198.39 186.37 201.64 180.73 201.64 174.62L201.65 174.61Z" fill="url(#paint1_linear_47_9)"/>
<path d="M201.65 132.35C201.65 156.04 183.17 161.67 161.88 161.51C151.62 161.43 119.26 161.43 88.47 161.45C88.46 161.47 88.45 161.49 88.43 161.51C77.64 179.88 73.28 198.69 93.8 210.54L116.61 223.71C121.9 226.76 128.41 226.76 133.7 223.71L193.11 189.41C198.4 186.36 201.65 180.72 201.65 174.61V132.35Z" fill="url(#paint2_linear_47_9)"/>
<path d="M285.72 188.8C276.6 188.8 268.56 187.04 261.6 183.52C254.72 180 249.4 174.96 245.64 168.4C241.88 161.76 240 154 240 145.12C240 136.24 241.88 128.52 245.64 121.96C249.4 115.32 254.72 110.24 261.6 106.72C268.56 103.12 276.6 101.32 285.72 101.32C291.72 101.32 297.08 101.92 301.8 103.12C306.52 104.32 310.88 106.2 314.88 108.76V128.92C311.36 126.12 307.36 124.08 302.88 122.8C298.48 121.52 293.4 120.88 287.64 120.88C279.4 120.88 273.04 123.04 268.56 127.36C264.08 131.6 261.84 137.52 261.84 145.12C261.84 152.72 264.08 158.68 268.56 163C273.12 167.32 279.48 169.48 287.64 169.48C293.4 169.48 298.56 168.8 303.12 167.44C307.68 166.08 311.92 163.92 315.84 160.96V181C308.24 186.2 298.2 188.8 285.72 188.8ZM324.197 98.32H345.317V187H324.197V98.32ZM379.232 188.8C371.312 188.8 365.352 186.6 361.352 182.2C357.432 177.8 355.472 172 355.472 164.8V129.4H376.592V162.4C376.592 169.04 379.592 172.36 385.592 172.36C388.312 172.36 390.792 171.72 393.032 170.44C395.272 169.16 397.112 167.28 398.552 164.8V129.4H419.672V187H399.272V180.76C396.792 183.4 393.792 185.4 390.272 186.76C386.752 188.12 383.072 188.8 379.232 188.8ZM455.446 188.8C448.326 188.8 442.926 186.84 439.246 182.92C435.646 178.92 433.846 173.48 433.846 166.6V144.04H425.686V129.4H433.846V112.12H454.966V129.4H468.166V144.04H454.966V163.72C454.966 166.84 455.526 169.08 456.646 170.44C457.846 171.8 459.926 172.48 462.886 172.48C465.526 172.48 468.166 171.76 470.806 170.32V186.04C468.726 187 466.486 187.68 464.086 188.08C461.766 188.56 458.886 188.8 455.446 188.8ZM508.109 188.8C497.549 188.8 489.189 186.16 483.029 180.88C476.869 175.6 473.789 168.08 473.789 158.32C473.789 148.56 476.869 141 483.029 135.64C489.269 130.28 497.669 127.6 508.229 127.6C512.949 127.6 517.349 128.08 521.429 129.04C525.589 129.92 529.029 131.2 531.749 132.88V149.32C526.869 145.8 520.429 144.04 512.429 144.04C507.309 144.04 503.189 145.24 500.069 147.64C497.029 149.96 495.509 153.52 495.509 158.32C495.509 163.2 497.029 166.8 500.069 169.12C503.109 171.36 507.189 172.48 512.309 172.48C520.069 172.48 526.789 170.64 532.469 166.96V183.28C526.389 186.96 518.269 188.8 508.109 188.8ZM540.877 98.32H561.997V135.28C564.557 132.72 567.477 130.8 570.757 129.52C574.117 128.24 577.637 127.6 581.317 127.6C589.397 127.6 595.357 129.72 599.197 133.96C603.117 138.12 605.077 143.8 605.077 151V187H583.957V153.76C583.957 147.28 580.997 144.04 575.077 144.04C572.357 144.04 569.877 144.68 567.637 145.96C565.397 147.16 563.517 149.04 561.997 151.6V187H540.877V98.32ZM656.072 103.12H715.592V121H677.312V136.72H705.272V153.4H677.312V169.12H715.592V187H656.072V103.12ZM747.123 188.8C742.483 188.8 737.643 188.32 732.603 187.36C727.563 186.48 723.563 185.2 720.603 183.52V168.04C723.883 169.96 727.803 171.56 732.363 172.84C737.003 174.04 741.243 174.64 745.083 174.64C747.883 174.64 749.923 174.44 751.203 174.04C752.483 173.64 753.123 172.84 753.123 171.64C753.123 170.68 752.683 169.92 751.803 169.36C751.003 168.72 749.483 168.08 747.243 167.44C745.083 166.72 742.563 165.96 739.683 165.16C734.803 163.72 730.963 162.24 728.163 160.72C725.363 159.2 723.283 157.28 721.923 154.96C720.563 152.64 719.883 149.72 719.883 146.2C719.883 139.96 722.323 135.32 727.203 132.28C732.163 129.16 738.923 127.6 747.483 127.6C751.643 127.6 756.003 128.04 760.563 128.92C765.203 129.8 768.683 130.96 771.003 132.4V147.64C768.603 146.04 765.403 144.72 761.403 143.68C757.483 142.64 753.803 142.12 750.363 142.12C747.643 142.12 745.523 142.4 744.003 142.96C742.483 143.44 741.723 144.32 741.723 145.6C741.723 146.8 742.483 147.72 744.003 148.36C745.523 149 748.243 149.8 752.163 150.76C754.723 151.4 755.803 151.68 755.403 151.6C760.523 152.96 764.483 154.48 767.283 156.16C770.083 157.84 772.043 159.84 773.163 162.16C774.363 164.4 774.963 167.28 774.963 170.8C774.963 176.32 772.563 180.72 767.763 184C763.043 187.2 756.163 188.8 747.123 188.8ZM783.338 129.4H803.738V135.16C809.098 130.12 815.898 127.6 824.138 127.6C830.138 127.6 835.458 128.88 840.098 131.44C844.738 133.92 848.338 137.48 850.898 142.12C853.458 146.68 854.738 152 854.738 158.08C854.738 164.08 853.458 169.44 850.898 174.16C848.338 178.8 844.738 182.4 840.098 184.96C835.538 187.52 830.218 188.8 824.138 188.8C820.298 188.8 816.618 188.2 813.098 187C809.658 185.88 806.778 184.32 804.458 182.32V213.28H783.338V129.4ZM818.618 172.36C822.938 172.36 826.418 171.08 829.058 168.52C831.698 165.96 833.018 162.48 833.018 158.08C833.018 153.68 831.698 150.24 829.058 147.76C826.418 145.2 822.938 143.92 818.618 143.92C815.418 143.92 812.538 144.76 809.978 146.44C807.418 148.04 805.578 150.24 804.458 153.04V163.24C805.578 166.04 807.418 168.28 809.978 169.96C812.538 171.56 815.418 172.36 818.618 172.36ZM893.215 188.8C886.095 188.8 879.855 187.52 874.495 184.96C869.135 182.32 864.975 178.72 862.015 174.16C859.135 169.52 857.695 164.2 857.695 158.2C857.695 152.2 859.135 146.92 862.015 142.36C864.975 137.72 869.135 134.12 874.495 131.56C879.855 128.92 886.095 127.6 893.215 127.6C900.335 127.6 906.575 128.92 911.935 131.56C917.295 134.12 921.415 137.72 924.295 142.36C927.255 146.92 928.735 152.2 928.735 158.2C928.735 164.2 927.255 169.52 924.295 174.16C921.415 178.72 917.295 182.32 911.935 184.96C906.575 187.52 900.335 188.8 893.215 188.8ZM893.215 172.36C897.455 172.36 900.815 171.12 903.295 168.64C905.855 166.08 907.135 162.6 907.135 158.2C907.135 153.8 905.855 150.36 903.295 147.88C900.815 145.32 897.455 144.04 893.215 144.04C888.975 144.04 885.575 145.32 883.015 147.88C880.535 150.36 879.295 153.8 879.295 158.2C879.295 162.6 880.535 166.08 883.015 168.64C885.575 171.12 888.975 172.36 893.215 172.36ZM937.088 129.4H957.488V136.6C959.728 134.04 962.888 132.08 966.967 130.72C971.048 129.28 975.568 128.56 980.528 128.56V144.76C975.248 144.76 970.568 145.52 966.488 147.04C962.488 148.56 959.728 150.84 958.208 153.88V187H937.088V129.4ZM1011.5 188.8C1004.38 188.8 998.981 186.84 995.301 182.92C991.701 178.92 989.901 173.48 989.901 166.6V144.04H981.741V129.4H989.901V112.12H1011.02V129.4H1024.22V144.04H1011.02V163.72C1011.02 166.84 1011.58 169.08 1012.7 170.44C1013.9 171.8 1015.98 172.48 1018.94 172.48C1021.58 172.48 1024.22 171.76 1026.86 170.32V186.04C1024.78 187 1022.54 187.68 1020.14 188.08C1017.82 188.56 1014.94 188.8 1011.5 188.8ZM1055.33 188.8C1050.69 188.8 1045.85 188.32 1040.81 187.36C1035.77 186.48 1031.77 185.2 1028.81 183.52V168.04C1032.09 169.96 1036.01 171.56 1040.57 172.84C1045.21 174.04 1049.45 174.64 1053.29 174.64C1056.09 174.64 1058.13 174.44 1059.41 174.04C1060.69 173.64 1061.33 172.84 1061.33 171.64C1061.33 170.68 1060.89 169.92 1060.01 169.36C1059.21 168.72 1057.69 168.08 1055.45 167.44C1053.29 166.72 1050.77 165.96 1047.89 165.16C1043.01 163.72 1039.17 162.24 1036.37 160.72C1033.57 159.2 1031.49 157.28 1030.13 154.96C1028.77 152.64 1028.09 149.72 1028.09 146.2C1028.09 139.96 1030.53 135.32 1035.41 132.28C1040.37 129.16 1047.13 127.6 1055.69 127.6C1059.85 127.6 1064.21 128.04 1068.77 128.92C1073.41 129.8 1076.89 130.96 1079.21 132.4V147.64C1076.81 146.04 1073.61 144.72 1069.61 143.68C1065.69 142.64 1062.01 142.12 1058.57 142.12C1055.85 142.12 1053.73 142.4 1052.21 142.96C1050.69 143.44 1049.93 144.32 1049.93 145.6C1049.93 146.8 1050.69 147.72 1052.21 148.36C1053.73 149 1056.45 149.8 1060.37 150.76C1062.93 151.4 1064.01 151.68 1063.61 151.6C1068.73 152.96 1072.69 154.48 1075.49 156.16C1078.29 157.84 1080.25 159.84 1081.37 162.16C1082.57 164.4 1083.17 167.28 1083.17 170.8C1083.17 176.32 1080.77 180.72 1075.97 184C1071.25 187.2 1064.37 188.8 1055.33 188.8Z" fill="url(#paint3_linear_47_9)"/>
<defs>
<linearGradient id="paint0_linear_47_9" x1="103.97" y1="71.9801" x2="49.48" y2="212.93" gradientUnits="userSpaceOnUse">
<stop stop-color="#C5FF00"/>
<stop offset="0.27" stop-color="#A3E700"/>
<stop offset="0.57" stop-color="#83D100"/>
<stop offset="0.82" stop-color="#6FC300"/>
<stop offset="1" stop-color="#69BF00"/>
</linearGradient>
<linearGradient id="paint1_linear_47_9" x1="179.21" y1="165.63" x2="120" y2="48.9301" gradientUnits="userSpaceOnUse">
<stop stop-color="#C5FF00"/>
<stop offset="0.27" stop-color="#A3E700"/>
<stop offset="0.57" stop-color="#83D100"/>
<stop offset="0.82" stop-color="#6FC300"/>
<stop offset="1" stop-color="#69BF00"/>
</linearGradient>
<linearGradient id="paint2_linear_47_9" x1="88.12" y1="180.5" x2="222.42" y2="178.14" gradientUnits="userSpaceOnUse">
<stop stop-color="#C5FF00"/>
<stop offset="0.27" stop-color="#A3E700"/>
<stop offset="0.57" stop-color="#83D100"/>
<stop offset="0.82" stop-color="#6FC300"/>
<stop offset="1" stop-color="#69BF00"/>
</linearGradient>
<linearGradient id="paint3_linear_47_9" x1="237" y1="147" x2="1072.88" y2="147" gradientUnits="userSpaceOnUse">
<stop stop-color="#C5FF00"/>
<stop offset="1" stop-color="#69BF00"/>
</linearGradient>
</defs>
</svg>
