<svg width="196" height="218" viewBox="0 0 196 218" fill="none" xmlns="http://www.w3.org/2000/svg">
<path d="M87.61 18.9101L28.2 53.2101C22.91 56.2601 19.66 61.9001 19.66 68.0101V136.61C19.66 142.71 22.92 148.36 28.2 151.41L64.8 172.54C44.29 160.7 48.65 141.88 59.43 123.51C67.06 110.52 98.38 56.1801 116.06 25.4701L104.69 18.9101C99.4 15.8601 92.89 15.8601 87.6 18.9101H87.61Z" fill="url(#paint0_linear_54_14)"/>
<path d="M172.65 136.61V68.0101C172.65 61.9101 169.39 56.2601 164.11 53.2101L104.7 18.9101C99.41 15.8601 92.9 15.8601 87.61 18.9101L51.01 40.0401C71.52 28.2001 85.64 41.3801 96.15 59.9101C103.58 73.0101 134.98 127.3 152.73 157.98L164.1 151.42C169.39 148.37 172.64 142.73 172.64 136.62L172.65 136.61Z" fill="url(#paint1_linear_54_14)"/>
<path d="M172.65 94.35C172.65 118.04 154.17 123.67 132.88 123.51C122.62 123.43 90.26 123.43 59.47 123.45C59.46 123.47 59.45 123.49 59.43 123.51C48.64 141.88 44.28 160.69 64.8 172.54L87.61 185.71C92.9 188.76 99.41 188.76 104.7 185.71L164.11 151.41C169.4 148.36 172.65 142.72 172.65 136.61V94.35Z" fill="url(#paint2_linear_54_14)"/>
<defs>
<linearGradient id="paint0_linear_54_14" x1="74.97" y1="33.9801" x2="20.48" y2="174.93" gradientUnits="userSpaceOnUse">
<stop stop-color="#C5FF00"/>
<stop offset="0.27" stop-color="#A3E700"/>
<stop offset="0.57" stop-color="#83D100"/>
<stop offset="0.82" stop-color="#6FC300"/>
<stop offset="1" stop-color="#69BF00"/>
</linearGradient>
<linearGradient id="paint1_linear_54_14" x1="150.21" y1="127.63" x2="91" y2="10.9301" gradientUnits="userSpaceOnUse">
<stop stop-color="#C5FF00"/>
<stop offset="0.27" stop-color="#A3E700"/>
<stop offset="0.57" stop-color="#83D100"/>
<stop offset="0.82" stop-color="#6FC300"/>
<stop offset="1" stop-color="#69BF00"/>
</linearGradient>
<linearGradient id="paint2_linear_54_14" x1="59.12" y1="142.5" x2="193.42" y2="140.14" gradientUnits="userSpaceOnUse">
<stop stop-color="#C5FF00"/>
<stop offset="0.27" stop-color="#A3E700"/>
<stop offset="0.57" stop-color="#83D100"/>
<stop offset="0.82" stop-color="#6FC300"/>
<stop offset="1" stop-color="#69BF00"/>
</linearGradient>
</defs>
</svg>
